<?xml version="1.0" encoding="utf-8"?>
<!-- Generator: Adobe Illustrator 24.0.3, SVG Export Plug-In . SVG Version: 6.00 Build 0)  -->
<svg version="1.1" id="Layer_1" xmlns="http://www.w3.org/2000/svg" xmlns:xlink="http://www.w3.org/1999/xlink" x="0px" y="0px"
	 viewBox="0 0 205.71 48" style="enable-background:new 0 0 205.71 48;" xml:space="preserve">
<style type="text/css">
	.st0{fill:#892C6E;}
	.st1{fill:url(#SVGID_1_);}
	.st2{fill:url(#SVGID_2_);}
</style>
<g>
	<path class="st0" d="M143.77,19.73c-0.67,0-1.27,0-1.85,0c-0.18-0.11-0.15-0.27-0.18-0.4c-0.81-2.8-2.6-4.21-5.53-4.36
		c-3.78-0.19-6.29,1.58-7.33,5.22c-0.79,2.79-0.72,5.59,0.22,8.32c1.39,4,5.81,5.73,9.49,3.79c1.63-0.86,2.59-2.27,3.17-3.97
		c0.09-0.26,0.17-0.53,0.27-0.83c0.63-0.11,1.25-0.05,1.88-0.04c-0.21,3.1-2.96,6.21-6.16,6.95c-1.72,0.4-3.46,0.44-5.16-0.06
		c-2.84-0.82-4.57-2.79-5.42-5.54c-0.93-3.01-1-6.08-0.18-9.11c1.3-4.78,4.93-6.82,9.91-6.37c3.8,0.34,6.03,2.42,6.81,5.97
		C143.75,19.42,143.75,19.53,143.77,19.73z"/>
	<path class="st0" d="M61.23,13.83c0.76,0,1.44,0,2.11,0c0.28,0.53,7.56,19.49,7.78,20.27c-0.63,0-1.25,0-1.9,0
		c-0.77-2.08-1.54-4.17-2.33-6.28c-3.09,0-6.16,0-9.3,0c-0.79,2.08-1.59,4.19-2.39,6.3c-0.64,0-1.25,0-1.95,0
		C55.92,27.34,58.57,20.61,61.23,13.83z M66.23,26.08c-1.33-3.55-2.63-7.04-3.99-10.68c-1.37,3.66-2.66,7.15-3.98,10.68
		C60.95,26.08,63.53,26.08,66.23,26.08z"/>
	<path class="st0" d="M160.97,23.85c-0.59,0-1.11,0-1.62,0c-0.01-2.35,1.52-4.02,4.13-4.5c1.31-0.24,2.62-0.23,3.92,0.1
		c2.04,0.52,3.17,1.9,3.18,4.01c0.02,2.7,0.01,5.41,0.01,8.11c0,0.47,0.01,0.94,0.31,1.33c0.47,0.3,0.93,0.05,1.42,0
		c0.12,0.39,0.05,0.78,0.05,1.16c-1.73,0.85-2.9,0.26-3.49-1.76c-0.27,0.06-0.41,0.3-0.6,0.46c-1.96,1.64-4.17,2.2-6.65,1.53
		c-1.79-0.48-2.87-1.85-3-3.66c-0.12-1.82,0.71-3.2,2.43-3.99c1.44-0.67,3-0.74,4.53-0.97c0.81-0.12,1.63-0.19,2.43-0.43
		c0.5-0.15,0.78-0.48,0.86-1c0.31-1.93-0.64-3.29-2.57-3.58c-0.96-0.15-1.93-0.12-2.87,0.14c-1.19,0.32-1.94,1.1-2.28,2.28
		C161.08,23.32,161.04,23.57,160.97,23.85z M168.92,26.59c-1.76,0.75-3.57,0.67-5.33,0.93c-0.61,0.09-1.19,0.27-1.74,0.55
		c-1.09,0.57-1.56,1.51-1.43,2.81c0.1,0.97,0.84,1.84,1.93,2.09c1.86,0.43,3.6,0.11,5.14-1.03c0.72-0.54,1.2-1.28,1.34-2.17
		C169.01,28.76,168.91,27.73,168.92,26.59z"/>
	<path class="st0" d="M108.71,27.24c-3.78,0-7.51,0-11.23,0c-0.24,2.7,1.28,5.16,3.5,5.75c2.63,0.7,4.56-0.35,5.85-3.18
		c0.55,0,1.11,0,1.79,0c-0.52,1.7-1.31,3.13-2.9,3.98c-4.35,2.34-9.35-0.22-9.98-5.09c-0.25-1.95-0.14-3.84,0.68-5.66
		c1.5-3.3,5.07-4.77,8.43-3.41c2.37,0.96,3.36,2.94,3.75,5.32C108.71,25.68,108.8,26.41,108.71,27.24z M106.92,25.78
		c0.04-3.03-1.76-5.08-4.37-5.2c-3.36-0.15-5.01,2.88-5.11,5.2C100.6,25.78,103.74,25.78,106.92,25.78z"/>
	<path class="st0" d="M205.31,23.64c-0.58,0-1.1,0-1.63,0c-0.04-0.1-0.09-0.21-0.12-0.32c-0.72-2.5-4.08-3.64-6.23-2.14
		c-1.15,0.8-1.54,2.91,0.19,3.79c1.1,0.56,2.29,0.83,3.48,1.11c1.03,0.24,2.03,0.55,2.96,1.08c2.51,1.43,2.1,4.81,0.3,6.16
		c-1.94,1.46-5.78,1.68-7.85,0.38c-1.32-0.83-2.11-2.27-2.14-3.93c0.53,0,1.06,0,1.57,0c0.2,0.17,0.17,0.4,0.23,0.6
		c0.57,1.8,1.67,2.67,3.56,2.77c0.94,0.05,1.89,0.05,2.76-0.4c0.92-0.48,1.48-1.2,1.52-2.27c0.03-0.86-0.33-1.49-1.08-1.91
		c-1.04-0.58-2.2-0.8-3.35-1.02c-0.83-0.16-1.65-0.34-2.44-0.67c-1.49-0.61-2.46-1.59-2.48-3.32c-0.02-1.79,0.73-3.12,2.37-3.81
		c2.05-0.86,4.14-0.76,6.15,0.2C204.57,20.65,205.07,22.03,205.31,23.64z"/>
	<path class="st0" d="M188.36,23.64c-0.59,0-1.1,0-1.63,0c-0.04-0.09-0.08-0.17-0.1-0.26c-0.73-2.5-3.8-3.65-6.08-2.31
		c-1.38,0.82-1.7,3.05,0.02,3.91c1.11,0.55,2.29,0.83,3.48,1.11c1.03,0.24,2.03,0.55,2.96,1.08c2.49,1.42,2.1,4.8,0.29,6.16
		c-1.94,1.46-5.8,1.69-7.85,0.37c-1.41-0.9-2.06-2.25-2.18-3.93c0.58,0,1.11,0,1.61,0c0.2,0.18,0.17,0.42,0.24,0.61
		c0.58,1.82,1.71,2.69,3.64,2.77c0.92,0.04,1.84,0.03,2.69-0.41c0.92-0.48,1.48-1.2,1.52-2.28c0.03-0.87-0.34-1.49-1.09-1.9
		c-1.05-0.58-2.2-0.79-3.35-1.02c-0.83-0.16-1.65-0.34-2.44-0.67c-1.46-0.61-2.43-1.55-2.47-3.25c-0.04-1.78,0.68-3.15,2.31-3.85
		c2.12-0.91,4.28-0.8,6.33,0.25C187.68,20.74,188.13,22.09,188.36,23.64z"/>
	<path class="st0" d="M87.88,19.45c0.95,0,1.83,0,2.74,0c0,0.48,0,0.9,0,1.39c-0.86,0-1.74,0-2.55,0c-0.24,0.22-0.18,0.42-0.18,0.6
		c0,3.22-0.01,6.44,0,9.66c0.01,1.95,0.49,2.33,2.4,1.95c0.11-0.02,0.23-0.04,0.38-0.06c0.15,0.41,0.06,0.79,0.07,1.2
		c-0.65,0.19-1.28,0.36-1.94,0.36c-1.67-0.01-2.52-0.81-2.54-2.52c-0.03-2.82-0.02-5.64-0.02-8.46c0-0.87,0-1.74,0-2.67
		c-0.68,0-1.33,0-1.98,0c-0.19-0.48-0.06-0.92-0.1-1.44c0.69,0,1.36,0,2.08,0c0-1.39,0-2.7,0-4.04c0.56,0,1.07,0,1.64,0
		C87.88,16.77,87.88,18.08,87.88,19.45z"/>
	<path class="st0" d="M76.9,13.84c0.54,0,1.03,0,1.58,0c0,6.75,0,13.5,0,20.27c-0.52,0-1.02,0-1.58,0
		C76.9,27.37,76.9,20.64,76.9,13.84z"/>
	<path class="st0" d="M152.2,34.11c-0.56,0-1.06,0-1.6,0c0-6.77,0-13.5,0-20.26c0.54,0,1.05,0,1.6,0
		C152.2,20.6,152.2,27.33,152.2,34.11z"/>
	<path class="st0" d="M116.61,34.12c-0.55,0-1.06,0-1.61,0c0-4.86,0-9.71,0-14.61c0.51,0,1.03,0,1.61,0c0,0.82,0,1.66,0,2.5
		c0.95-2.06,2.6-2.85,4.8-2.8c0,0.54,0,1.06,0,1.64c-0.34,0.03-0.69,0.03-1.03,0.08c-1.98,0.32-3.24,1.72-3.59,3.89
		c-0.2,1.26-0.14,2.53-0.15,3.8c-0.01,1.76,0,3.52-0.01,5.29C116.64,33.95,116.63,34,116.61,34.12z"/>
	<path class="st0" d="M106.92,25.78c-3.19,0-6.33,0-9.47,0"/>
</g>
<g>
	<linearGradient id="SVGID_1_" gradientUnits="userSpaceOnUse" x1="24.0146" y1="3.0514" x2="24.0146" y2="44.9034">
		<stop  offset="0" style="stop-color:#892C6E"/>
		<stop  offset="1" style="stop-color:#C33364"/>
	</linearGradient>
	<path class="st1" d="M48.03,24.08C44,31.04,39.97,38,35.97,44.9c-8.04,0-16.02,0-24.02,0C7.95,37.87,3.98,30.89,0,23.89
		C4.03,16.92,8.06,9.96,12.05,3.05c8.04,0,16.02,0,24.04,0C40.08,10.08,44.05,17.07,48.03,24.08z M46.76,24.08
		c-3.78-6.65-7.53-13.24-11.31-19.89c-7.56,0-15.13,0-22.76,0C8.9,10.72,5.09,17.31,1.27,23.9c3.77,6.64,7.53,13.26,11.31,19.91
		c7.6,0,15.14,0,22.76,0C39.13,37.28,42.93,30.69,46.76,24.08z"/>
</g>
<g>
	<linearGradient id="SVGID_2_" gradientUnits="userSpaceOnUse" x1="24.0146" y1="0" x2="24.0146" y2="48">
		<stop  offset="0" style="stop-color:#892C6E"/>
		<stop  offset="1" style="stop-color:#C33364"/>
	</linearGradient>
	<path class="st2" d="M3.07,11.94c7.05-4,14.03-7.96,21.04-11.94c6.96,4.03,13.92,8.06,20.84,12.07c0,8,0,15.99,0,23.99
		c-7.02,3.99-14,7.95-21.03,11.94c-6.94-4.01-13.91-8.03-20.85-12.04C3.07,27.95,3.07,19.98,3.07,11.94z"/>
</g>
</svg>
